<svg xmlns="http://www.w3.org/2000/svg" enable-background="new 0 0 50 50" viewBox="0 0 50 50" id="shopping-basket"><path fill="#CC9F71" d="M10.7667,11.4996c-0.3719-1.1294-0.4097-2.4469-0.0602-3.5741c0.1682-0.5693,0.4539-1.1036,0.8239-1.5446
		c0.3519-0.459,0.8102-0.7947,1.2593-1.0939l0.417,0.5399c-0.3202,0.3545-0.6196,0.7129-0.7942,1.126
		c-0.5643,1.1551-0.302,2.7397,0.3072,3.6268L10.7667,11.4996z"></path><path fill="#EF4C4A" d="M2.9135,23.7942l2.9456,22.4304C6.0677,47.8126,7.4211,49,9.0227,49h31.9636
		c1.6016,0,2.955-1.1874,3.1635-2.7754l2.9457-22.4304H2.9135z"></path><path fill="#FFF" d="M13.5788 28.4214c-1.1926 0-2.1593.9668-2.1593 2.1594v11.6326c0 1.1926.9667 2.1593 2.1593 2.1593 1.1926 0 2.1594-.9667 2.1594-2.1593V30.5808C15.7381 29.3882 14.7714 28.4214 13.5788 28.4214zM25.0045 28.4214c-1.1926 0-2.1594.9668-2.1594 2.1594v11.6326c0 1.1926.9668 2.1593 2.1594 2.1593s2.1594-.9667 2.1594-2.1593V30.5808C27.1638 29.3882 26.1971 28.4214 25.0045 28.4214zM36.4302 28.4214c-1.1926 0-2.1594.9668-2.1594 2.1594v11.6326c0 1.1926.9668 2.1593 2.1594 2.1593s2.1594-.9667 2.1594-2.1593V30.5808C38.5896 29.3882 37.6228 28.4214 36.4302 28.4214z"></path><path fill="#F16768" d="M48.1472,17.0973H1.8528c-0.3574,0-0.6472,0.2897-0.6472,0.6471v5.4026
		c0,0.3574,0.2897,0.6472,0.6472,0.6472h46.2945c0.3574,0,0.6472-0.2898,0.6472-0.6472v-5.4026
		C48.7944,17.387,48.5047,17.0973,48.1472,17.0973z"></path><path fill="#FDD97C" d="M11.6788,10.4573c3.6672,0,6.64,2.9729,6.64,6.6399h-13.28C5.0388,13.4302,8.0117,10.4573,11.6788,10.4573z
		"></path><path fill="#CC9F71" d="M46.115,9.5759H35.4941c-0.6756,0-1.2233,0.5476-1.2233,1.2231v6.2982h13.0674v-6.2982
		C47.3383,10.1235,46.7906,9.5759,46.115,9.5759z"></path><path fill="#4A8BC9" d="M31.5234,5.6672v11.4321H18.2605V5.6672c0-0.5038,0.4084-0.9123,0.9123-0.9123h11.4383
		C31.1149,4.7549,31.5234,5.1633,31.5234,5.6672z"></path><path fill="#72B0E0" d="M28.3944,1.5152v3.2396h-7.0049V1.5152C21.3895,1.2307,21.6201,1,21.9047,1h5.9744
		C28.1637,1,28.3944,1.2307,28.3944,1.5152z"></path><path fill="#EEEAE8" d="M39.7404,5.6859L39.7404,5.6859c-0.8988-0.8988-2.356-0.8988-3.2547,0L23.6598,18.512l3.2547,3.2546
		l12.826-12.8261C40.6392,8.0418,40.6392,6.5847,39.7404,5.6859z"></path><circle cx="25" cy="20.446" r="2.423" fill="#FDD97C"></circle><path fill="#439F47" d="M11.5819,8.1992c-2.11,1.0601-4.67,0.21-5.72-1.8999c1.05-0.52,2.22-0.5701,3.25-0.23
		C10.1519,6.4192,11.052,7.1592,11.5819,8.1992z"></path></svg>